<mxfile host="app.diagrams.net" modified="2022-07-12T00:49:31.720Z" agent="5.0 (Windows NT 10.0; Win64; x64) AppleWebKit/537.36 (KHTML, like Gecko) Chrome/103.0.0.0 Safari/537.36" etag="94Y7Ls34ZN8D7QvAYIg1" version="20.0.4" type="github">
  <diagram id="8HZwDO7vEsLMjVZsUaXS" name="Page-1">
    <mxGraphModel dx="541" dy="885" grid="1" gridSize="10" guides="1" tooltips="1" connect="1" arrows="1" fold="1" page="1" pageScale="1" pageWidth="850" pageHeight="1100" math="0" shadow="0">
      <root>
        <mxCell id="0" />
        <mxCell id="1" parent="0" />
        <mxCell id="fmrDMaU2U6wh1C317-LP-1" value="3" style="rounded=0;whiteSpace=wrap;html=1;" vertex="1" parent="1">
          <mxGeometry x="140" y="200" width="40" height="20" as="geometry" />
        </mxCell>
        <mxCell id="fmrDMaU2U6wh1C317-LP-14" value="insert 3" style="text;html=1;align=center;verticalAlign=middle;resizable=0;points=[];autosize=1;strokeColor=none;fillColor=none;" vertex="1" parent="1">
          <mxGeometry x="130" y="165" width="60" height="30" as="geometry" />
        </mxCell>
        <mxCell id="fmrDMaU2U6wh1C317-LP-109" style="edgeStyle=orthogonalEdgeStyle;rounded=0;orthogonalLoop=1;jettySize=auto;html=1;" edge="1" source="fmrDMaU2U6wh1C317-LP-111" parent="1">
          <mxGeometry relative="1" as="geometry">
            <mxPoint x="279" y="981" as="targetPoint" />
            <Array as="points">
              <mxPoint x="279" y="620" />
              <mxPoint x="279" y="620" />
            </Array>
          </mxGeometry>
        </mxCell>
        <mxCell id="fmrDMaU2U6wh1C317-LP-163" style="edgeStyle=orthogonalEdgeStyle;rounded=0;orthogonalLoop=1;jettySize=auto;html=1;entryX=0.5;entryY=0;entryDx=0;entryDy=0;" edge="1" parent="1" source="fmrDMaU2U6wh1C317-LP-161" target="fmrDMaU2U6wh1C317-LP-162">
          <mxGeometry relative="1" as="geometry" />
        </mxCell>
        <mxCell id="fmrDMaU2U6wh1C317-LP-161" value="3" style="rounded=0;whiteSpace=wrap;html=1;fillColor=#000000;fontColor=#ffffff;strokeColor=#6F0000;" vertex="1" parent="1">
          <mxGeometry x="260" y="200" width="40" height="20" as="geometry" />
        </mxCell>
        <mxCell id="fmrDMaU2U6wh1C317-LP-162" value="6" style="rounded=0;whiteSpace=wrap;html=1;fillColor=#a20025;fontColor=#ffffff;strokeColor=#6F0000;" vertex="1" parent="1">
          <mxGeometry x="290" y="260" width="40" height="20" as="geometry" />
        </mxCell>
        <mxCell id="fmrDMaU2U6wh1C317-LP-164" value="insert 6" style="text;html=1;align=center;verticalAlign=middle;resizable=0;points=[];autosize=1;strokeColor=none;fillColor=none;" vertex="1" parent="1">
          <mxGeometry x="250" y="165" width="60" height="30" as="geometry" />
        </mxCell>
        <mxCell id="fmrDMaU2U6wh1C317-LP-168" style="edgeStyle=orthogonalEdgeStyle;rounded=0;orthogonalLoop=1;jettySize=auto;html=1;entryX=0.5;entryY=0;entryDx=0;entryDy=0;" edge="1" parent="1" source="fmrDMaU2U6wh1C317-LP-165" target="fmrDMaU2U6wh1C317-LP-166">
          <mxGeometry relative="1" as="geometry" />
        </mxCell>
        <mxCell id="fmrDMaU2U6wh1C317-LP-169" style="edgeStyle=orthogonalEdgeStyle;rounded=0;orthogonalLoop=1;jettySize=auto;html=1;entryX=0.5;entryY=0;entryDx=0;entryDy=0;" edge="1" parent="1" source="fmrDMaU2U6wh1C317-LP-165" target="fmrDMaU2U6wh1C317-LP-167">
          <mxGeometry relative="1" as="geometry" />
        </mxCell>
        <mxCell id="fmrDMaU2U6wh1C317-LP-165" value="4" style="rounded=0;whiteSpace=wrap;html=1;fillColor=#000000;fontColor=#ffffff;strokeColor=#6F0000;" vertex="1" parent="1">
          <mxGeometry x="385" y="200" width="40" height="20" as="geometry" />
        </mxCell>
        <mxCell id="fmrDMaU2U6wh1C317-LP-166" value="3" style="rounded=0;whiteSpace=wrap;html=1;fillColor=#a20025;fontColor=#ffffff;strokeColor=#6F0000;" vertex="1" parent="1">
          <mxGeometry x="350" y="260" width="40" height="20" as="geometry" />
        </mxCell>
        <mxCell id="fmrDMaU2U6wh1C317-LP-167" value="6" style="rounded=0;whiteSpace=wrap;html=1;fillColor=#a20025;fontColor=#ffffff;strokeColor=#6F0000;" vertex="1" parent="1">
          <mxGeometry x="410" y="260" width="40" height="20" as="geometry" />
        </mxCell>
        <mxCell id="fmrDMaU2U6wh1C317-LP-170" style="edgeStyle=orthogonalEdgeStyle;rounded=0;orthogonalLoop=1;jettySize=auto;html=1;entryX=0.5;entryY=0;entryDx=0;entryDy=0;" edge="1" source="fmrDMaU2U6wh1C317-LP-172" target="fmrDMaU2U6wh1C317-LP-173" parent="1">
          <mxGeometry relative="1" as="geometry" />
        </mxCell>
        <mxCell id="fmrDMaU2U6wh1C317-LP-171" style="edgeStyle=orthogonalEdgeStyle;rounded=0;orthogonalLoop=1;jettySize=auto;html=1;entryX=0.5;entryY=0;entryDx=0;entryDy=0;" edge="1" source="fmrDMaU2U6wh1C317-LP-172" target="fmrDMaU2U6wh1C317-LP-174" parent="1">
          <mxGeometry relative="1" as="geometry" />
        </mxCell>
        <mxCell id="fmrDMaU2U6wh1C317-LP-172" value="4" style="rounded=0;whiteSpace=wrap;html=1;fillColor=#000000;fontColor=#ffffff;strokeColor=#6F0000;" vertex="1" parent="1">
          <mxGeometry x="505" y="200" width="40" height="20" as="geometry" />
        </mxCell>
        <mxCell id="fmrDMaU2U6wh1C317-LP-173" value="3" style="rounded=0;whiteSpace=wrap;html=1;fillColor=#030001;fontColor=#ffffff;strokeColor=#6F0000;" vertex="1" parent="1">
          <mxGeometry x="470" y="260" width="40" height="20" as="geometry" />
        </mxCell>
        <mxCell id="fmrDMaU2U6wh1C317-LP-176" style="edgeStyle=orthogonalEdgeStyle;rounded=0;orthogonalLoop=1;jettySize=auto;html=1;entryX=0.5;entryY=0;entryDx=0;entryDy=0;" edge="1" parent="1" source="fmrDMaU2U6wh1C317-LP-174" target="fmrDMaU2U6wh1C317-LP-175">
          <mxGeometry relative="1" as="geometry">
            <Array as="points">
              <mxPoint x="550" y="290" />
              <mxPoint x="570" y="290" />
            </Array>
          </mxGeometry>
        </mxCell>
        <mxCell id="fmrDMaU2U6wh1C317-LP-174" value="6" style="rounded=0;whiteSpace=wrap;html=1;fillColor=#050001;fontColor=#ffffff;strokeColor=#6F0000;" vertex="1" parent="1">
          <mxGeometry x="530" y="260" width="40" height="20" as="geometry" />
        </mxCell>
        <mxCell id="fmrDMaU2U6wh1C317-LP-175" value="16" style="rounded=0;whiteSpace=wrap;html=1;fillColor=#a20025;fontColor=#ffffff;strokeColor=#6F0000;" vertex="1" parent="1">
          <mxGeometry x="550" y="310" width="40" height="20" as="geometry" />
        </mxCell>
        <mxCell id="fmrDMaU2U6wh1C317-LP-177" value="insert 4" style="text;html=1;align=center;verticalAlign=middle;resizable=0;points=[];autosize=1;strokeColor=none;fillColor=none;" vertex="1" parent="1">
          <mxGeometry x="375" y="170" width="60" height="30" as="geometry" />
        </mxCell>
        <mxCell id="fmrDMaU2U6wh1C317-LP-178" value="insert 16" style="text;html=1;align=center;verticalAlign=middle;resizable=0;points=[];autosize=1;strokeColor=none;fillColor=none;" vertex="1" parent="1">
          <mxGeometry x="490" y="170" width="70" height="30" as="geometry" />
        </mxCell>
        <mxCell id="fmrDMaU2U6wh1C317-LP-179" style="edgeStyle=orthogonalEdgeStyle;rounded=0;orthogonalLoop=1;jettySize=auto;html=1;entryX=0.5;entryY=0;entryDx=0;entryDy=0;" edge="1" source="fmrDMaU2U6wh1C317-LP-181" target="fmrDMaU2U6wh1C317-LP-182" parent="1">
          <mxGeometry relative="1" as="geometry" />
        </mxCell>
        <mxCell id="fmrDMaU2U6wh1C317-LP-180" style="edgeStyle=orthogonalEdgeStyle;rounded=0;orthogonalLoop=1;jettySize=auto;html=1;entryX=0.5;entryY=0;entryDx=0;entryDy=0;" edge="1" source="fmrDMaU2U6wh1C317-LP-181" target="fmrDMaU2U6wh1C317-LP-184" parent="1">
          <mxGeometry relative="1" as="geometry" />
        </mxCell>
        <mxCell id="fmrDMaU2U6wh1C317-LP-181" value="4" style="rounded=0;whiteSpace=wrap;html=1;fillColor=#000000;fontColor=#ffffff;strokeColor=#6F0000;" vertex="1" parent="1">
          <mxGeometry x="645" y="200" width="40" height="20" as="geometry" />
        </mxCell>
        <mxCell id="fmrDMaU2U6wh1C317-LP-182" value="3" style="rounded=0;whiteSpace=wrap;html=1;fillColor=#030001;fontColor=#ffffff;strokeColor=#6F0000;" vertex="1" parent="1">
          <mxGeometry x="610" y="260" width="40" height="20" as="geometry" />
        </mxCell>
        <mxCell id="fmrDMaU2U6wh1C317-LP-183" style="edgeStyle=orthogonalEdgeStyle;rounded=0;orthogonalLoop=1;jettySize=auto;html=1;entryX=0.5;entryY=0;entryDx=0;entryDy=0;" edge="1" source="fmrDMaU2U6wh1C317-LP-184" target="fmrDMaU2U6wh1C317-LP-185" parent="1">
          <mxGeometry relative="1" as="geometry">
            <Array as="points">
              <mxPoint x="690" y="297" />
              <mxPoint x="720" y="297" />
            </Array>
          </mxGeometry>
        </mxCell>
        <mxCell id="fmrDMaU2U6wh1C317-LP-188" style="edgeStyle=orthogonalEdgeStyle;rounded=0;orthogonalLoop=1;jettySize=auto;html=1;" edge="1" parent="1" source="fmrDMaU2U6wh1C317-LP-184" target="fmrDMaU2U6wh1C317-LP-187">
          <mxGeometry relative="1" as="geometry">
            <Array as="points">
              <mxPoint x="690" y="297" />
              <mxPoint x="659" y="297" />
            </Array>
          </mxGeometry>
        </mxCell>
        <mxCell id="fmrDMaU2U6wh1C317-LP-184" value="6" style="rounded=0;whiteSpace=wrap;html=1;fillColor=#050001;fontColor=#ffffff;strokeColor=#6F0000;" vertex="1" parent="1">
          <mxGeometry x="670" y="260" width="40" height="20" as="geometry" />
        </mxCell>
        <mxCell id="fmrDMaU2U6wh1C317-LP-185" value="19" style="rounded=0;whiteSpace=wrap;html=1;fillColor=#a20025;fontColor=#ffffff;strokeColor=#6F0000;" vertex="1" parent="1">
          <mxGeometry x="700" y="310" width="40" height="20" as="geometry" />
        </mxCell>
        <mxCell id="fmrDMaU2U6wh1C317-LP-186" value="insert 19" style="text;html=1;align=center;verticalAlign=middle;resizable=0;points=[];autosize=1;strokeColor=none;fillColor=none;" vertex="1" parent="1">
          <mxGeometry x="630" y="170" width="70" height="30" as="geometry" />
        </mxCell>
        <mxCell id="fmrDMaU2U6wh1C317-LP-187" value="16" style="rounded=0;whiteSpace=wrap;html=1;fillColor=#a20025;fontColor=#ffffff;strokeColor=#6F0000;" vertex="1" parent="1">
          <mxGeometry x="639" y="310" width="40" height="20" as="geometry" />
        </mxCell>
        <mxCell id="fmrDMaU2U6wh1C317-LP-189" style="edgeStyle=orthogonalEdgeStyle;rounded=0;orthogonalLoop=1;jettySize=auto;html=1;entryX=0.5;entryY=0;entryDx=0;entryDy=0;" edge="1" source="fmrDMaU2U6wh1C317-LP-191" target="fmrDMaU2U6wh1C317-LP-192" parent="1">
          <mxGeometry relative="1" as="geometry" />
        </mxCell>
        <mxCell id="fmrDMaU2U6wh1C317-LP-190" style="edgeStyle=orthogonalEdgeStyle;rounded=0;orthogonalLoop=1;jettySize=auto;html=1;entryX=0.5;entryY=0;entryDx=0;entryDy=0;" edge="1" source="fmrDMaU2U6wh1C317-LP-191" target="fmrDMaU2U6wh1C317-LP-195" parent="1">
          <mxGeometry relative="1" as="geometry" />
        </mxCell>
        <mxCell id="fmrDMaU2U6wh1C317-LP-191" value="4" style="rounded=0;whiteSpace=wrap;html=1;fillColor=#000000;fontColor=#ffffff;strokeColor=#6F0000;" vertex="1" parent="1">
          <mxGeometry x="805" y="200" width="40" height="20" as="geometry" />
        </mxCell>
        <mxCell id="fmrDMaU2U6wh1C317-LP-192" value="3" style="rounded=0;whiteSpace=wrap;html=1;fillColor=#030001;fontColor=#ffffff;strokeColor=#6F0000;" vertex="1" parent="1">
          <mxGeometry x="770" y="260" width="40" height="20" as="geometry" />
        </mxCell>
        <mxCell id="fmrDMaU2U6wh1C317-LP-193" style="edgeStyle=orthogonalEdgeStyle;rounded=0;orthogonalLoop=1;jettySize=auto;html=1;entryX=0.5;entryY=0;entryDx=0;entryDy=0;" edge="1" source="fmrDMaU2U6wh1C317-LP-195" target="fmrDMaU2U6wh1C317-LP-196" parent="1">
          <mxGeometry relative="1" as="geometry">
            <Array as="points">
              <mxPoint x="850" y="297" />
              <mxPoint x="880" y="297" />
            </Array>
          </mxGeometry>
        </mxCell>
        <mxCell id="fmrDMaU2U6wh1C317-LP-194" style="edgeStyle=orthogonalEdgeStyle;rounded=0;orthogonalLoop=1;jettySize=auto;html=1;" edge="1" source="fmrDMaU2U6wh1C317-LP-195" target="fmrDMaU2U6wh1C317-LP-198" parent="1">
          <mxGeometry relative="1" as="geometry">
            <Array as="points">
              <mxPoint x="850" y="297" />
              <mxPoint x="819" y="297" />
            </Array>
          </mxGeometry>
        </mxCell>
        <mxCell id="fmrDMaU2U6wh1C317-LP-195" value="16" style="rounded=0;whiteSpace=wrap;html=1;fillColor=#a20025;fontColor=#ffffff;strokeColor=#6F0000;" vertex="1" parent="1">
          <mxGeometry x="830" y="260" width="40" height="20" as="geometry" />
        </mxCell>
        <mxCell id="fmrDMaU2U6wh1C317-LP-201" style="edgeStyle=orthogonalEdgeStyle;rounded=0;orthogonalLoop=1;jettySize=auto;html=1;entryX=0.5;entryY=0;entryDx=0;entryDy=0;" edge="1" parent="1" source="fmrDMaU2U6wh1C317-LP-196" target="fmrDMaU2U6wh1C317-LP-200">
          <mxGeometry relative="1" as="geometry">
            <Array as="points">
              <mxPoint x="880" y="340" />
              <mxPoint x="850" y="340" />
            </Array>
          </mxGeometry>
        </mxCell>
        <mxCell id="fmrDMaU2U6wh1C317-LP-196" value="19" style="rounded=0;whiteSpace=wrap;html=1;fillColor=#030001;fontColor=#ffffff;strokeColor=#6F0000;" vertex="1" parent="1">
          <mxGeometry x="860" y="310" width="40" height="20" as="geometry" />
        </mxCell>
        <mxCell id="fmrDMaU2U6wh1C317-LP-197" value="insert 18" style="text;html=1;align=center;verticalAlign=middle;resizable=0;points=[];autosize=1;strokeColor=none;fillColor=none;" vertex="1" parent="1">
          <mxGeometry x="790" y="170" width="70" height="30" as="geometry" />
        </mxCell>
        <mxCell id="fmrDMaU2U6wh1C317-LP-198" value="6" style="rounded=0;whiteSpace=wrap;html=1;fillColor=#050001;fontColor=#ffffff;strokeColor=#6F0000;" vertex="1" parent="1">
          <mxGeometry x="799" y="310" width="40" height="20" as="geometry" />
        </mxCell>
        <mxCell id="fmrDMaU2U6wh1C317-LP-200" value="18" style="rounded=0;whiteSpace=wrap;html=1;fillColor=#a20025;fontColor=#ffffff;strokeColor=#6F0000;" vertex="1" parent="1">
          <mxGeometry x="830" y="360" width="40" height="20" as="geometry" />
        </mxCell>
        <mxCell id="fmrDMaU2U6wh1C317-LP-202" style="edgeStyle=orthogonalEdgeStyle;rounded=0;orthogonalLoop=1;jettySize=auto;html=1;entryX=0.5;entryY=0;entryDx=0;entryDy=0;" edge="1" source="fmrDMaU2U6wh1C317-LP-204" target="fmrDMaU2U6wh1C317-LP-205" parent="1">
          <mxGeometry relative="1" as="geometry" />
        </mxCell>
        <mxCell id="fmrDMaU2U6wh1C317-LP-203" style="edgeStyle=orthogonalEdgeStyle;rounded=0;orthogonalLoop=1;jettySize=auto;html=1;entryX=0.5;entryY=0;entryDx=0;entryDy=0;" edge="1" source="fmrDMaU2U6wh1C317-LP-204" target="fmrDMaU2U6wh1C317-LP-208" parent="1">
          <mxGeometry relative="1" as="geometry" />
        </mxCell>
        <mxCell id="fmrDMaU2U6wh1C317-LP-204" value="4" style="rounded=0;whiteSpace=wrap;html=1;fillColor=#000000;fontColor=#ffffff;strokeColor=#6F0000;" vertex="1" parent="1">
          <mxGeometry x="255" y="390" width="40" height="20" as="geometry" />
        </mxCell>
        <mxCell id="fmrDMaU2U6wh1C317-LP-205" value="3" style="rounded=0;whiteSpace=wrap;html=1;fillColor=#030001;fontColor=#ffffff;strokeColor=#6F0000;" vertex="1" parent="1">
          <mxGeometry x="220" y="450" width="40" height="20" as="geometry" />
        </mxCell>
        <mxCell id="fmrDMaU2U6wh1C317-LP-206" style="edgeStyle=orthogonalEdgeStyle;rounded=0;orthogonalLoop=1;jettySize=auto;html=1;entryX=0.5;entryY=0;entryDx=0;entryDy=0;" edge="1" source="fmrDMaU2U6wh1C317-LP-208" target="fmrDMaU2U6wh1C317-LP-210" parent="1">
          <mxGeometry relative="1" as="geometry">
            <Array as="points">
              <mxPoint x="300" y="487" />
              <mxPoint x="330" y="487" />
            </Array>
          </mxGeometry>
        </mxCell>
        <mxCell id="fmrDMaU2U6wh1C317-LP-207" style="edgeStyle=orthogonalEdgeStyle;rounded=0;orthogonalLoop=1;jettySize=auto;html=1;" edge="1" source="fmrDMaU2U6wh1C317-LP-208" target="fmrDMaU2U6wh1C317-LP-212" parent="1">
          <mxGeometry relative="1" as="geometry">
            <Array as="points">
              <mxPoint x="300" y="487" />
              <mxPoint x="269" y="487" />
            </Array>
          </mxGeometry>
        </mxCell>
        <mxCell id="fmrDMaU2U6wh1C317-LP-208" value="16" style="rounded=0;whiteSpace=wrap;html=1;fillColor=#a20025;fontColor=#ffffff;strokeColor=#6F0000;" vertex="1" parent="1">
          <mxGeometry x="280" y="450" width="40" height="20" as="geometry" />
        </mxCell>
        <mxCell id="fmrDMaU2U6wh1C317-LP-209" style="edgeStyle=orthogonalEdgeStyle;rounded=0;orthogonalLoop=1;jettySize=auto;html=1;entryX=0.5;entryY=0;entryDx=0;entryDy=0;" edge="1" source="fmrDMaU2U6wh1C317-LP-210" target="fmrDMaU2U6wh1C317-LP-213" parent="1">
          <mxGeometry relative="1" as="geometry">
            <Array as="points">
              <mxPoint x="330" y="530" />
              <mxPoint x="300" y="530" />
            </Array>
          </mxGeometry>
        </mxCell>
        <mxCell id="fmrDMaU2U6wh1C317-LP-215" style="edgeStyle=orthogonalEdgeStyle;rounded=0;orthogonalLoop=1;jettySize=auto;html=1;" edge="1" parent="1" source="fmrDMaU2U6wh1C317-LP-210" target="fmrDMaU2U6wh1C317-LP-214">
          <mxGeometry relative="1" as="geometry">
            <Array as="points">
              <mxPoint x="330" y="530" />
              <mxPoint x="355" y="530" />
            </Array>
          </mxGeometry>
        </mxCell>
        <mxCell id="fmrDMaU2U6wh1C317-LP-210" value="19" style="rounded=0;whiteSpace=wrap;html=1;fillColor=#030001;fontColor=#ffffff;strokeColor=#6F0000;" vertex="1" parent="1">
          <mxGeometry x="310" y="500" width="40" height="20" as="geometry" />
        </mxCell>
        <mxCell id="fmrDMaU2U6wh1C317-LP-211" value="insert 22" style="text;html=1;align=center;verticalAlign=middle;resizable=0;points=[];autosize=1;strokeColor=none;fillColor=none;" vertex="1" parent="1">
          <mxGeometry x="240" y="360" width="70" height="30" as="geometry" />
        </mxCell>
        <mxCell id="fmrDMaU2U6wh1C317-LP-212" value="6" style="rounded=0;whiteSpace=wrap;html=1;fillColor=#050001;fontColor=#ffffff;strokeColor=#6F0000;" vertex="1" parent="1">
          <mxGeometry x="249" y="500" width="40" height="20" as="geometry" />
        </mxCell>
        <mxCell id="fmrDMaU2U6wh1C317-LP-213" value="18" style="rounded=0;whiteSpace=wrap;html=1;fillColor=#a20025;fontColor=#ffffff;strokeColor=#6F0000;" vertex="1" parent="1">
          <mxGeometry x="280" y="550" width="40" height="20" as="geometry" />
        </mxCell>
        <mxCell id="fmrDMaU2U6wh1C317-LP-214" value="22" style="rounded=0;whiteSpace=wrap;html=1;fillColor=#a20025;fontColor=#ffffff;strokeColor=#6F0000;" vertex="1" parent="1">
          <mxGeometry x="335" y="550" width="40" height="20" as="geometry" />
        </mxCell>
        <mxCell id="fmrDMaU2U6wh1C317-LP-216" style="edgeStyle=orthogonalEdgeStyle;rounded=0;orthogonalLoop=1;jettySize=auto;html=1;entryX=0.5;entryY=0;entryDx=0;entryDy=0;" edge="1" source="fmrDMaU2U6wh1C317-LP-218" target="fmrDMaU2U6wh1C317-LP-219" parent="1">
          <mxGeometry relative="1" as="geometry" />
        </mxCell>
        <mxCell id="fmrDMaU2U6wh1C317-LP-217" style="edgeStyle=orthogonalEdgeStyle;rounded=0;orthogonalLoop=1;jettySize=auto;html=1;entryX=0.5;entryY=0;entryDx=0;entryDy=0;" edge="1" source="fmrDMaU2U6wh1C317-LP-218" target="fmrDMaU2U6wh1C317-LP-222" parent="1">
          <mxGeometry relative="1" as="geometry" />
        </mxCell>
        <mxCell id="fmrDMaU2U6wh1C317-LP-218" value="4" style="rounded=0;whiteSpace=wrap;html=1;fillColor=#000000;fontColor=#ffffff;strokeColor=#6F0000;" vertex="1" parent="1">
          <mxGeometry x="440" y="390" width="40" height="20" as="geometry" />
        </mxCell>
        <mxCell id="fmrDMaU2U6wh1C317-LP-219" value="3" style="rounded=0;whiteSpace=wrap;html=1;fillColor=#030001;fontColor=#ffffff;strokeColor=#6F0000;" vertex="1" parent="1">
          <mxGeometry x="405" y="450" width="40" height="20" as="geometry" />
        </mxCell>
        <mxCell id="fmrDMaU2U6wh1C317-LP-220" style="edgeStyle=orthogonalEdgeStyle;rounded=0;orthogonalLoop=1;jettySize=auto;html=1;entryX=0.5;entryY=0;entryDx=0;entryDy=0;" edge="1" source="fmrDMaU2U6wh1C317-LP-222" target="fmrDMaU2U6wh1C317-LP-225" parent="1">
          <mxGeometry relative="1" as="geometry">
            <Array as="points">
              <mxPoint x="485" y="487" />
              <mxPoint x="515" y="487" />
            </Array>
          </mxGeometry>
        </mxCell>
        <mxCell id="fmrDMaU2U6wh1C317-LP-221" style="edgeStyle=orthogonalEdgeStyle;rounded=0;orthogonalLoop=1;jettySize=auto;html=1;" edge="1" source="fmrDMaU2U6wh1C317-LP-222" target="fmrDMaU2U6wh1C317-LP-227" parent="1">
          <mxGeometry relative="1" as="geometry">
            <Array as="points">
              <mxPoint x="485" y="487" />
              <mxPoint x="454" y="487" />
            </Array>
          </mxGeometry>
        </mxCell>
        <mxCell id="fmrDMaU2U6wh1C317-LP-222" value="16" style="rounded=0;whiteSpace=wrap;html=1;fillColor=#a20025;fontColor=#ffffff;strokeColor=#6F0000;" vertex="1" parent="1">
          <mxGeometry x="465" y="450" width="40" height="20" as="geometry" />
        </mxCell>
        <mxCell id="fmrDMaU2U6wh1C317-LP-223" style="edgeStyle=orthogonalEdgeStyle;rounded=0;orthogonalLoop=1;jettySize=auto;html=1;entryX=0.5;entryY=0;entryDx=0;entryDy=0;" edge="1" source="fmrDMaU2U6wh1C317-LP-225" target="fmrDMaU2U6wh1C317-LP-228" parent="1">
          <mxGeometry relative="1" as="geometry">
            <Array as="points">
              <mxPoint x="515" y="530" />
              <mxPoint x="485" y="530" />
            </Array>
          </mxGeometry>
        </mxCell>
        <mxCell id="fmrDMaU2U6wh1C317-LP-224" style="edgeStyle=orthogonalEdgeStyle;rounded=0;orthogonalLoop=1;jettySize=auto;html=1;" edge="1" source="fmrDMaU2U6wh1C317-LP-225" target="fmrDMaU2U6wh1C317-LP-229" parent="1">
          <mxGeometry relative="1" as="geometry">
            <Array as="points">
              <mxPoint x="515" y="530" />
              <mxPoint x="540" y="530" />
            </Array>
          </mxGeometry>
        </mxCell>
        <mxCell id="fmrDMaU2U6wh1C317-LP-225" value="19" style="rounded=0;whiteSpace=wrap;html=1;fillColor=#030001;fontColor=#ffffff;strokeColor=#6F0000;" vertex="1" parent="1">
          <mxGeometry x="495" y="500" width="40" height="20" as="geometry" />
        </mxCell>
        <mxCell id="fmrDMaU2U6wh1C317-LP-226" value="insert 10" style="text;html=1;align=center;verticalAlign=middle;resizable=0;points=[];autosize=1;strokeColor=none;fillColor=none;" vertex="1" parent="1">
          <mxGeometry x="425" y="360" width="70" height="30" as="geometry" />
        </mxCell>
        <mxCell id="fmrDMaU2U6wh1C317-LP-231" style="edgeStyle=orthogonalEdgeStyle;rounded=0;orthogonalLoop=1;jettySize=auto;html=1;entryX=0.5;entryY=0;entryDx=0;entryDy=0;" edge="1" parent="1" source="fmrDMaU2U6wh1C317-LP-227" target="fmrDMaU2U6wh1C317-LP-230">
          <mxGeometry relative="1" as="geometry">
            <Array as="points">
              <mxPoint x="454" y="530" />
              <mxPoint x="430" y="530" />
            </Array>
          </mxGeometry>
        </mxCell>
        <mxCell id="fmrDMaU2U6wh1C317-LP-227" value="6" style="rounded=0;whiteSpace=wrap;html=1;fillColor=#050001;fontColor=#ffffff;strokeColor=#6F0000;" vertex="1" parent="1">
          <mxGeometry x="434" y="500" width="40" height="20" as="geometry" />
        </mxCell>
        <mxCell id="fmrDMaU2U6wh1C317-LP-228" value="18" style="rounded=0;whiteSpace=wrap;html=1;fillColor=#a20025;fontColor=#ffffff;strokeColor=#6F0000;" vertex="1" parent="1">
          <mxGeometry x="465" y="550" width="40" height="20" as="geometry" />
        </mxCell>
        <mxCell id="fmrDMaU2U6wh1C317-LP-229" value="22" style="rounded=0;whiteSpace=wrap;html=1;fillColor=#a20025;fontColor=#ffffff;strokeColor=#6F0000;" vertex="1" parent="1">
          <mxGeometry x="520" y="550" width="40" height="20" as="geometry" />
        </mxCell>
        <mxCell id="fmrDMaU2U6wh1C317-LP-230" value="10" style="rounded=0;whiteSpace=wrap;html=1;fillColor=#a20025;fontColor=#ffffff;strokeColor=#6F0000;" vertex="1" parent="1">
          <mxGeometry x="410" y="550" width="40" height="20" as="geometry" />
        </mxCell>
        <mxCell id="fmrDMaU2U6wh1C317-LP-232" style="edgeStyle=orthogonalEdgeStyle;rounded=0;orthogonalLoop=1;jettySize=auto;html=1;entryX=0.5;entryY=0;entryDx=0;entryDy=0;" edge="1" source="fmrDMaU2U6wh1C317-LP-234" target="fmrDMaU2U6wh1C317-LP-235" parent="1">
          <mxGeometry relative="1" as="geometry">
            <Array as="points">
              <mxPoint x="750" y="430" />
              <mxPoint x="675" y="430" />
            </Array>
          </mxGeometry>
        </mxCell>
        <mxCell id="fmrDMaU2U6wh1C317-LP-233" style="edgeStyle=orthogonalEdgeStyle;rounded=0;orthogonalLoop=1;jettySize=auto;html=1;entryX=0.5;entryY=0;entryDx=0;entryDy=0;" edge="1" source="fmrDMaU2U6wh1C317-LP-234" target="fmrDMaU2U6wh1C317-LP-238" parent="1">
          <mxGeometry relative="1" as="geometry">
            <Array as="points">
              <mxPoint x="750" y="430" />
              <mxPoint x="815" y="430" />
            </Array>
          </mxGeometry>
        </mxCell>
        <mxCell id="fmrDMaU2U6wh1C317-LP-234" value="16" style="rounded=0;whiteSpace=wrap;html=1;fillColor=#000000;fontColor=#ffffff;strokeColor=#6F0000;" vertex="1" parent="1">
          <mxGeometry x="730" y="390" width="40" height="20" as="geometry" />
        </mxCell>
        <mxCell id="fmrDMaU2U6wh1C317-LP-250" style="edgeStyle=orthogonalEdgeStyle;rounded=0;orthogonalLoop=1;jettySize=auto;html=1;entryX=0.5;entryY=0;entryDx=0;entryDy=0;" edge="1" parent="1" source="fmrDMaU2U6wh1C317-LP-235" target="fmrDMaU2U6wh1C317-LP-248">
          <mxGeometry relative="1" as="geometry">
            <Array as="points">
              <mxPoint x="675" y="480" />
              <mxPoint x="640" y="480" />
            </Array>
          </mxGeometry>
        </mxCell>
        <mxCell id="fmrDMaU2U6wh1C317-LP-251" style="edgeStyle=orthogonalEdgeStyle;rounded=0;orthogonalLoop=1;jettySize=auto;html=1;entryX=0.5;entryY=0;entryDx=0;entryDy=0;" edge="1" parent="1" source="fmrDMaU2U6wh1C317-LP-235" target="fmrDMaU2U6wh1C317-LP-244">
          <mxGeometry relative="1" as="geometry">
            <Array as="points">
              <mxPoint x="675" y="480" />
              <mxPoint x="710" y="480" />
            </Array>
          </mxGeometry>
        </mxCell>
        <mxCell id="fmrDMaU2U6wh1C317-LP-235" value="4" style="rounded=0;whiteSpace=wrap;html=1;fillColor=#a20025;fontColor=#ffffff;strokeColor=#6F0000;" vertex="1" parent="1">
          <mxGeometry x="655" y="450" width="40" height="20" as="geometry" />
        </mxCell>
        <mxCell id="fmrDMaU2U6wh1C317-LP-254" style="edgeStyle=orthogonalEdgeStyle;rounded=0;orthogonalLoop=1;jettySize=auto;html=1;" edge="1" parent="1" source="fmrDMaU2U6wh1C317-LP-238" target="fmrDMaU2U6wh1C317-LP-245">
          <mxGeometry relative="1" as="geometry">
            <Array as="points">
              <mxPoint x="815" y="480" />
              <mxPoint x="779" y="480" />
            </Array>
          </mxGeometry>
        </mxCell>
        <mxCell id="fmrDMaU2U6wh1C317-LP-255" style="edgeStyle=orthogonalEdgeStyle;rounded=0;orthogonalLoop=1;jettySize=auto;html=1;entryX=0.5;entryY=0;entryDx=0;entryDy=0;" edge="1" parent="1" source="fmrDMaU2U6wh1C317-LP-238" target="fmrDMaU2U6wh1C317-LP-253">
          <mxGeometry relative="1" as="geometry">
            <Array as="points">
              <mxPoint x="815" y="480" />
              <mxPoint x="850" y="480" />
            </Array>
          </mxGeometry>
        </mxCell>
        <mxCell id="fmrDMaU2U6wh1C317-LP-238" value="19" style="rounded=0;whiteSpace=wrap;html=1;fillColor=#a20025;fontColor=#ffffff;strokeColor=#6F0000;" vertex="1" parent="1">
          <mxGeometry x="795" y="450" width="40" height="20" as="geometry" />
        </mxCell>
        <mxCell id="fmrDMaU2U6wh1C317-LP-242" value="insert 17" style="text;html=1;align=center;verticalAlign=middle;resizable=0;points=[];autosize=1;strokeColor=none;fillColor=none;" vertex="1" parent="1">
          <mxGeometry x="715" y="355" width="70" height="30" as="geometry" />
        </mxCell>
        <mxCell id="fmrDMaU2U6wh1C317-LP-252" style="edgeStyle=orthogonalEdgeStyle;rounded=0;orthogonalLoop=1;jettySize=auto;html=1;" edge="1" parent="1" source="fmrDMaU2U6wh1C317-LP-244" target="fmrDMaU2U6wh1C317-LP-247">
          <mxGeometry relative="1" as="geometry" />
        </mxCell>
        <mxCell id="fmrDMaU2U6wh1C317-LP-244" value="6" style="rounded=0;whiteSpace=wrap;html=1;fillColor=#050001;fontColor=#ffffff;strokeColor=#6F0000;" vertex="1" parent="1">
          <mxGeometry x="690" y="500" width="40" height="20" as="geometry" />
        </mxCell>
        <mxCell id="fmrDMaU2U6wh1C317-LP-257" style="edgeStyle=orthogonalEdgeStyle;rounded=0;orthogonalLoop=1;jettySize=auto;html=1;" edge="1" parent="1" source="fmrDMaU2U6wh1C317-LP-245" target="fmrDMaU2U6wh1C317-LP-256">
          <mxGeometry relative="1" as="geometry">
            <Array as="points">
              <mxPoint x="779" y="530" />
              <mxPoint x="770" y="530" />
            </Array>
          </mxGeometry>
        </mxCell>
        <mxCell id="fmrDMaU2U6wh1C317-LP-245" value="18" style="rounded=0;whiteSpace=wrap;html=1;fillColor=#050001;fontColor=#ffffff;strokeColor=#6F0000;" vertex="1" parent="1">
          <mxGeometry x="759" y="500" width="40" height="20" as="geometry" />
        </mxCell>
        <mxCell id="fmrDMaU2U6wh1C317-LP-247" value="10" style="rounded=0;whiteSpace=wrap;html=1;fillColor=#a20025;fontColor=#ffffff;strokeColor=#6F0000;" vertex="1" parent="1">
          <mxGeometry x="690" y="550" width="40" height="20" as="geometry" />
        </mxCell>
        <mxCell id="fmrDMaU2U6wh1C317-LP-248" value="3" style="rounded=0;whiteSpace=wrap;html=1;fillColor=#050001;fontColor=#ffffff;strokeColor=#6F0000;" vertex="1" parent="1">
          <mxGeometry x="620" y="500" width="40" height="20" as="geometry" />
        </mxCell>
        <mxCell id="fmrDMaU2U6wh1C317-LP-253" value="22" style="rounded=0;whiteSpace=wrap;html=1;fillColor=#030001;fontColor=#ffffff;strokeColor=#6F0000;" vertex="1" parent="1">
          <mxGeometry x="830" y="500" width="40" height="20" as="geometry" />
        </mxCell>
        <mxCell id="fmrDMaU2U6wh1C317-LP-256" value="17" style="rounded=0;whiteSpace=wrap;html=1;fillColor=#a20025;fontColor=#ffffff;strokeColor=#6F0000;" vertex="1" parent="1">
          <mxGeometry x="750" y="550" width="40" height="20" as="geometry" />
        </mxCell>
      </root>
    </mxGraphModel>
  </diagram>
</mxfile>
